<svg xmlns="http://www.w3.org/2000/svg" width="142" height="36" fill="none" viewBox="0 0 142 36">
  <path fill="url(#a)" d="M4 10c0-1.657 1.343 1 3 1s3-2.657 3-1l-.055 20C9.945 31 7 34 6 34c-1.657 0-2-1.343-2-3V10Z"/>
  <path fill="url(#b)" d="M4 5a3 3 0 1 1 6 0 3 3 0 0 1-6 0Z"/>
  <path fill="url(#c)" d="M11.945 5a3 3 0 1 1 6 0v18c0 1-3 4-4 4-1.657 0-2-1.343-2-3V5Z"/>
  <path fill="url(#d)" d="M19.116 5a3 3 0 0 1 3-3h8.829c2 0-1 1.343-1 3a3 3 0 0 1-3 3h-4.83a3 3 0 0 1-3-3Z"/>
  <path fill="url(#e)" d="M19.116 14a3 3 0 0 1 3-3h4.829c1.657 0-1 1.772-1 3a3 3 0 0 1-3 3h-.83a3 3 0 0 1-3-3Z"/>
  <path fill="url(#f)" d="M38.752 11.244c-.433 0-.797-.139-1.092-.416a1.532 1.532 0 0 1-.416-1.092c0-.416.139-.763.416-1.04a1.532 1.532 0 0 1 1.092-.416 1.5 1.5 0 0 1 1.066.416c.295.277.442.624.442 1.04 0 .433-.147.797-.442 1.092a1.5 1.5 0 0 1-1.066.416ZM37.66 27V14.104h2.184V27H37.66Zm11.837.312c-1.283 0-2.41-.295-3.38-.884a6.14 6.14 0 0 1-2.236-2.418c-.52-1.023-.78-2.184-.78-3.484 0-1.3.268-2.453.806-3.458a5.955 5.955 0 0 1 2.236-2.392c.953-.59 2.08-.884 3.38-.884 1.057 0 1.993.217 2.808.65a4.684 4.684 0 0 1 1.898 1.82V8.28h2.184V27h-1.976l-.208-2.132c-.416.624-1.014 1.187-1.794 1.69-.78.503-1.76.754-2.938.754Zm.234-1.898c.866 0 1.63-.2 2.288-.598a4.15 4.15 0 0 0 1.56-1.716c.381-.728.572-1.577.572-2.548 0-.97-.19-1.82-.572-2.548a3.98 3.98 0 0 0-1.56-1.69c-.659-.416-1.422-.624-2.288-.624-.85 0-1.612.208-2.288.624-.659.399-1.179.962-1.56 1.69-.364.728-.546 1.577-.546 2.548 0 .97.182 1.82.546 2.548.381.728.901 1.3 1.56 1.716.676.399 1.439.598 2.288.598Zm16.04 1.898c-1.23 0-2.323-.277-3.276-.832a6.187 6.187 0 0 1-2.262-2.366c-.537-1.005-.806-2.193-.806-3.562 0-1.352.269-2.53.806-3.536.537-1.023 1.283-1.811 2.236-2.366.97-.572 2.089-.858 3.354-.858 1.248 0 2.323.286 3.224.858a5.606 5.606 0 0 1 2.106 2.21c.485.919.728 1.907.728 2.964 0 .19-.009.381-.026.572v.65h-10.27c.052.988.277 1.811.676 2.47.416.641.927 1.127 1.534 1.456.624.33 1.283.494 1.976.494.901 0 1.655-.208 2.262-.624a3.57 3.57 0 0 0 1.326-1.69h2.158a5.86 5.86 0 0 1-2.002 2.99c-.97.78-2.219 1.17-3.744 1.17Zm0-11.674c-1.04 0-1.967.32-2.782.962-.797.624-1.257 1.543-1.378 2.756h8.112c-.052-1.161-.45-2.071-1.196-2.73-.745-.659-1.664-.988-2.756-.988Zm13.295 11.674c-1.075 0-1.968-.182-2.678-.546-.711-.364-1.24-.85-1.586-1.456a3.915 3.915 0 0 1-.52-1.976c0-1.317.502-2.331 1.508-3.042 1.005-.71 2.374-1.066 4.108-1.066h3.484v-.156c0-1.127-.295-1.976-.884-2.548-.59-.59-1.378-.884-2.366-.884-.85 0-1.586.217-2.21.65-.607.416-.988 1.031-1.144 1.846h-2.236c.086-.936.398-1.725.936-2.366a5.294 5.294 0 0 1 2.054-1.456 6.57 6.57 0 0 1 2.6-.52c1.802 0 3.154.485 4.056 1.456.918.953 1.378 2.227 1.378 3.822V27h-1.95l-.13-2.314c-.364.728-.902 1.352-1.612 1.872-.694.503-1.63.754-2.808.754Zm.338-1.846c.832 0 1.542-.217 2.132-.65a4.11 4.11 0 0 0 1.378-1.69 5.263 5.263 0 0 0 .468-2.184v-.026H80.08c-1.283 0-2.193.225-2.73.676-.52.433-.78.98-.78 1.638 0 .676.242 1.222.728 1.638.502.399 1.204.598 2.106.598ZM88.972 27V8.8h11.076v1.794h-8.892v6.396h7.566v1.768h-7.566V27h-2.184Zm13.759 0V8.28h2.184V27h-2.184Zm11.639.312c-1.213 0-2.305-.277-3.276-.832a6.13 6.13 0 0 1-2.314-2.34c-.554-1.023-.832-2.219-.832-3.588 0-1.37.286-2.557.858-3.562.572-1.023 1.344-1.811 2.314-2.366.988-.555 2.089-.832 3.302-.832 1.214 0 2.306.277 3.276.832.971.555 1.734 1.343 2.288 2.366.572 1.005.858 2.193.858 3.562 0 1.37-.286 2.565-.858 3.588a6.072 6.072 0 0 1-2.34 2.34c-.97.555-2.062.832-3.276.832Zm0-1.872c.746 0 1.439-.182 2.08-.546.642-.364 1.162-.91 1.56-1.638.399-.728.598-1.63.598-2.704 0-1.075-.199-1.976-.598-2.704-.381-.728-.892-1.274-1.534-1.638a4.095 4.095 0 0 0-2.054-.546c-.745 0-1.438.182-2.08.546-.641.364-1.161.91-1.56 1.638-.398.728-.598 1.63-.598 2.704 0 1.075.2 1.976.598 2.704.399.728.91 1.274 1.534 1.638a4.097 4.097 0 0 0 2.054.546ZM125.999 27l-3.77-12.896h2.184l2.73 10.114 3.016-10.114h2.47l3.042 10.114 2.704-10.114h2.21L136.815 27h-2.236l-3.172-10.634L128.235 27h-2.236Z"/>
  <defs>
    <linearGradient id="a" x1="-102.055" x2="-108.861" y1="-10" y2="35.788" gradientUnits="userSpaceOnUse">
      <stop stop-color="#D3B0FF"/>
      <stop offset=".885" stop-color="#0469FF"/>
    </linearGradient>
    <linearGradient id="b" x1="-102.055" x2="-108.861" y1="-10" y2="35.788" gradientUnits="userSpaceOnUse">
      <stop stop-color="#D3B0FF"/>
      <stop offset=".885" stop-color="#0469FF"/>
    </linearGradient>
    <linearGradient id="c" x1="-102.055" x2="-108.861" y1="-10" y2="35.788" gradientUnits="userSpaceOnUse">
      <stop stop-color="#D3B0FF"/>
      <stop offset=".885" stop-color="#0469FF"/>
    </linearGradient>
    <linearGradient id="d" x1="-102.055" x2="-108.861" y1="-10" y2="35.788" gradientUnits="userSpaceOnUse">
      <stop stop-color="#D3B0FF"/>
      <stop offset=".885" stop-color="#0469FF"/>
    </linearGradient>
    <linearGradient id="e" x1="-102.055" x2="-108.861" y1="-10" y2="35.788" gradientUnits="userSpaceOnUse">
      <stop stop-color="#D3B0FF"/>
      <stop offset=".885" stop-color="#0469FF"/>
    </linearGradient>
    <linearGradient id="f" x1="140.001" x2="35.655" y1="13.952" y2="27.09" gradientUnits="userSpaceOnUse">
      <stop stop-color="#D3B0FF"/>
      <stop offset="1" stop-color="#86A1FF"/>
    </linearGradient>
  </defs>
</svg>
