<svg xmlns="http://www.w3.org/2000/svg" width="36" height="36" fill="none" viewBox="0 0 36 36">
  <path fill="url(#a)" d="M4 10c0-1.657 1.343 1 3 1s3-2.657 3-1l-.055 20C9.945 31 7 34 6 34c-1.657 0-2-1.343-2-3V10Z"/>
  <path fill="url(#b)" d="M4 5a3 3 0 1 1 6 0 3 3 0 0 1-6 0Z"/>
  <path fill="url(#c)" d="M11.945 5a3 3 0 1 1 6 0v18c0 1-3 4-4 4-1.657 0-2-1.343-2-3V5Z"/>
  <path fill="url(#d)" d="M19.116 5a3 3 0 0 1 3-3h8.829c2 0-1 1.343-1 3a3 3 0 0 1-3 3h-4.83a3 3 0 0 1-3-3Z"/>
  <path fill="url(#e)" d="M19.116 14a3 3 0 0 1 3-3h4.829c1.657 0-1 1.772-1 3a3 3 0 0 1-3 3h-.83a3 3 0 0 1-3-3Z"/>
  <defs>
    <linearGradient id="a" x1="-102.055" x2="-108.861" y1="-10" y2="35.788" gradientUnits="userSpaceOnUse">
      <stop stop-color="#D3B0FF"/>
      <stop offset=".885" stop-color="#0469FF"/>
    </linearGradient>
    <linearGradient id="b" x1="-102.055" x2="-108.861" y1="-10" y2="35.788" gradientUnits="userSpaceOnUse">
      <stop stop-color="#D3B0FF"/>
      <stop offset=".885" stop-color="#0469FF"/>
    </linearGradient>
    <linearGradient id="c" x1="-102.055" x2="-108.861" y1="-10" y2="35.788" gradientUnits="userSpaceOnUse">
      <stop stop-color="#D3B0FF"/>
      <stop offset=".885" stop-color="#0469FF"/>
    </linearGradient>
    <linearGradient id="d" x1="-102.055" x2="-108.861" y1="-10" y2="35.788" gradientUnits="userSpaceOnUse">
      <stop stop-color="#D3B0FF"/>
      <stop offset=".885" stop-color="#0469FF"/>
    </linearGradient>
    <linearGradient id="e" x1="-102.055" x2="-108.861" y1="-10" y2="35.788" gradientUnits="userSpaceOnUse">
      <stop stop-color="#D3B0FF"/>
      <stop offset=".885" stop-color="#0469FF"/>
    </linearGradient>
  </defs>
</svg>
